<svg height='100px' width='100px'  fill="#FFFFFF" xmlns="http://www.w3.org/2000/svg" xmlns:xlink="http://www.w3.org/1999/xlink" version="1.1" x="0px" y="0px" viewBox="0 0 64 44" style="enable-background:new 0 0 64 44;" xml:space="preserve"><path d="M63.993,0.963c-0.004-0.117-0.022-0.234-0.069-0.346c0-0.001-0.001-0.002-0.002-0.003c-0.004-0.009-0.01-0.015-0.014-0.024  c-0.045-0.1-0.107-0.188-0.18-0.266c-0.023-0.025-0.049-0.045-0.075-0.068c-0.064-0.056-0.133-0.103-0.21-0.141  c-0.031-0.016-0.061-0.032-0.094-0.045C63.239,0.029,63.123,0,63,0H1C0.877,0,0.761,0.029,0.65,0.071  C0.617,0.083,0.588,0.099,0.557,0.115C0.48,0.153,0.411,0.2,0.347,0.257C0.321,0.279,0.295,0.299,0.272,0.324  c-0.073,0.078-0.135,0.166-0.18,0.267C0.088,0.6,0.081,0.606,0.078,0.614c0,0.001-0.001,0.002-0.002,0.003  C0.03,0.729,0.012,0.846,0.007,0.963C0.007,0.976,0,0.987,0,1v42c0,0.552,0.448,1,1,1h62c0.552,0,1-0.448,1-1V1  C64,0.987,63.993,0.976,63.993,0.963z M23.936,25.35l6.65,6.65c0.378,0.378,0.88,0.586,1.414,0.586s1.036-0.208,1.414-0.586  l6.65-6.65L60.22,42H3.78L23.936,25.35z M2,40.877V3.414L22.516,23.93L2,40.877z M41.484,23.93L62,3.414v37.463L41.484,23.93z   M60.586,2L32,30.586c0,0,0,0,0.001,0l-0.001,1v-1L3.414,2H60.586z"></path></svg>